<svg width="512" height="512" viewBox="0 0 512 512" fill="none" xmlns="http://www.w3.org/2000/svg">
<mask id="mask0_2802_16" style="mask-type:alpha" maskUnits="userSpaceOnUse" x="7" y="50" width="499" height="412">
<path d="M295 54C295.858 54.1662 296.716 54.3325 297.599 54.5039C345.665 64.1367 390.378 91.8278 419.705 131.26C420.962 132.949 422.24 134.621 423.52 136.293C446.195 166.427 460.987 206.941 461.203 244.828C461.21 245.651 461.217 246.474 461.224 247.321C461.242 249.964 461.248 252.607 461.25 255.25C461.251 256.151 461.251 257.053 461.252 257.982C461.237 270.891 460.91 283.371 458 296C457.823 296.812 457.646 297.624 457.464 298.46C451.701 324.621 441.597 350.089 426 372C425.618 372.539 425.235 373.078 424.841 373.633C422.598 376.785 420.308 379.894 418 383C422.95 383 427.9 383 433 383C433.557 381.309 434.114 379.617 434.688 377.875C437.736 369.59 442.118 365.009 450 361C458.623 357.708 465.923 358.396 474.402 361.711C478.235 363.613 480.949 366.016 484 369C488.067 367.266 489.442 365.478 491.231 361.516C494.588 350.539 491.023 339.038 486.057 329.116C482.806 323.062 479.082 317.376 474.938 311.898C474.174 310.888 474.174 310.888 473.395 309.857C472.402 308.562 471.393 307.279 470.367 306.01C466.984 301.659 466.984 301.659 467.07 298.195C468 296 468 296 470 294C473.583 293.52 475.316 293.482 478.238 295.695C492.258 312.117 505.275 332.711 505 355C504.062 364.944 500.105 372.997 493 380C492.34 380.33 491.68 380.66 491 381C490.681 383.711 490.681 383.711 490.625 386.937C489.98 396.607 487.534 403.682 480.254 410.305C472.614 416.051 464.371 417.152 455 416C448.739 414.314 443.26 410.887 439 406C438.043 404.293 437.143 402.553 436.297 400.789C435.862 399.891 435.427 398.994 434.98 398.069C434.656 397.386 434.333 396.703 434 396C419.532 393.451 419.532 393.451 405.572 396.182C401.52 399.282 398.463 403.186 395.401 407.236C384.602 420.828 365.262 431.115 350 439C349.336 439.345 348.671 439.69 347.987 440.046C300.028 464.619 243.016 467.574 191.977 451.437C164.289 442.345 139.56 427.714 118.141 407.953C116.407 406.371 114.653 404.891 112.813 403.437C109.141 400.255 106.135 396.702 103 393C101.778 391.627 101.778 391.627 100.531 390.227C92.756 381.419 86.2362 371.944 80.0001 362C79.3852 361.028 79.3852 361.028 78.7579 360.037C63.8122 336.089 55.3245 307.903 52.0001 280C51.8413 278.821 51.8413 278.821 51.6793 277.618C51.0167 271.927 51.0512 266.404 51.3595 260.691C53.0757 244.283 53.0757 244.283 48.3556 229.328C45.2846 226.253 41.7447 224.169 38.0001 222C35.8946 219.98 35.8946 219.98 34.2501 218C33.728 217.373 33.2059 216.747 32.6681 216.102C31.8424 215.061 31.8424 215.061 31.0001 214C30.295 213.121 29.5899 212.242 28.8634 211.336C16.174 195.006 5.84229 176.288 7.19149 154.977C8.893 145.013 14.1111 136.406 22.2188 130.34C37.6286 120.559 55.7819 116.863 73.8126 116.75C74.6576 116.729 75.5026 116.709 76.3731 116.687C77.5903 116.68 77.5903 116.68 78.8321 116.672C79.5615 116.662 80.2909 116.653 81.0423 116.644C83.5843 117.106 84.4832 117.936 86.0001 120C85.7768 123.647 85.6164 125.384 83.0001 128C80.8397 128.347 80.8397 128.347 78.1524 128.492C77.1628 128.555 76.1731 128.618 75.1534 128.683C74.0922 128.746 73.031 128.81 71.9376 128.875C56.1305 130.027 37.3956 131.622 25.9376 143.937C20.2613 151.289 19.0315 157.875 20.0001 167C24.159 187.324 37.7305 203.641 52.0001 218C52.6601 218.33 53.3201 218.66 54.0001 219C54.1201 218.458 54.2402 217.916 54.3639 217.358C63.8151 175.134 82.3428 139.608 113 109C113.697 108.256 114.395 107.512 115.113 106.746C126.642 94.6443 140.644 85.4163 155 77C155.601 76.6445 156.202 76.289 156.821 75.9228C197.483 52.1681 248.998 44.9051 295 54ZM181 77C179.977 77.4365 179.977 77.4365 178.933 77.8818C156.341 87.6795 136.652 101.935 119 119C118.276 119.673 117.551 120.346 116.805 121.039C90.995 145.595 74.4349 180.615 66.5343 214.878C66.042 216.834 65.4058 218.751 64.7579 220.66C63.7387 224.194 63.2782 226.386 64.0001 230C67.4277 234.279 71.4166 237.313 75.8678 240.473C77.9878 241.991 80.0414 243.571 82.0899 245.184C109.005 266.316 137.596 284.834 167.431 301.559C169.121 302.507 170.809 303.458 172.495 304.414C184.77 311.368 197.271 317.675 210.06 323.629C212.958 324.98 215.848 326.347 218.738 327.715C273.183 353.289 331.518 372.65 391.074 381.548C392.995 381.845 394.912 382.171 396.822 382.53C399.675 383.021 401.268 383.001 404 382C408.047 378.134 410.978 373.684 414 369C414.781 367.836 415.564 366.673 416.348 365.512C418.276 362.618 420.126 359.683 421.943 356.718C422.941 355.096 423.964 353.489 424.988 351.883C450.36 310.291 456.004 257.799 445.285 210.868C436.255 174.156 417.559 143.516 391 117C390.34 116.305 389.68 115.61 389 114.894C362.393 87.1956 323.523 69.8884 286 64C285.282 63.8857 284.563 63.7715 283.823 63.6538C249.243 58.4214 213.119 63.2671 181 77ZM63.0001 244C55.4328 285.187 73.9055 333.49 97.0001 367C103.649 376.264 111.148 384.749 119 393C119.652 393.705 120.305 394.41 120.977 395.137C127.033 401.489 134.007 406.733 141 412C141.834 412.629 142.668 413.258 143.527 413.906C184.747 443.782 236.078 455.302 286.215 447.973C322.767 442.104 367.136 424.835 390.774 394.742C391.178 394.167 391.583 393.592 392 393C386.538 391.726 381.066 390.628 375.547 389.625C298.175 375.495 222.723 346.093 154.762 306.603C152.056 305.032 149.341 303.479 146.625 301.926C121.251 287.299 96.9229 270.634 74.0157 252.391C70.3952 249.52 66.7137 246.748 63.0001 244ZM447.688 377.625C444.203 382.53 444.317 387.111 445 393C446.717 397.854 449.389 400.995 453.875 403.5C458.422 405.407 462.315 405.945 467.074 404.27C472.454 401.833 475.478 398.892 478.25 393.625C479.566 389.019 479.517 385.36 477.813 380.875C475.012 376.433 471.91 372.992 467 371C458.596 369.908 453.407 371.133 447.688 377.625Z" fill="black"/>
<path d="M220 144C221.361 144.928 221.361 144.928 222.75 145.875C231.381 154.026 237.766 165.717 238.336 177.672C238.504 187.09 238.509 195.485 234 204C233.553 204.869 233.106 205.738 232.645 206.633C225.917 218.717 215.886 225.868 202.844 230.246C189.223 233.857 176.469 231.578 164.231 224.977C152.931 218.063 145.177 207.952 142 195C138.847 181.716 141.147 168.522 147.75 156.687C154.794 145.822 164.726 138.887 177 135C192.863 131.884 206.744 134.88 220 144ZM161.125 157.875C153.559 167.257 151.228 176.869 152.477 188.797C154.233 199.542 159.81 207.433 168.563 213.891C178.367 220.048 188.615 221.802 200.035 219.348C210.397 215.952 217.931 209.63 223 200C227.834 189.987 228.681 179.957 225.035 169.375C220.416 158.777 212.615 151.384 201.988 146.945C187.121 142.242 171.698 146.425 161.125 157.875Z" fill="black"/>
<path d="M349 149C354.597 154.008 358.601 158.855 359.336 166.488C359.424 175.09 359.203 181.322 353.27 187.926C347.725 193.271 341.71 195.993 334 196.375C326.981 196.04 320.69 193.709 315.574 188.844C309.988 182.301 308.147 175.731 308.52 167.184C309.637 159.784 313.096 153.737 319.055 149.184C328.593 143.381 339.421 143.219 349 149ZM322 163C319.746 166.569 319.675 169.761 320.317 173.934C321.554 177.674 324.131 180.374 327 183C330.715 184.858 334.946 184.442 339 184C342.834 182.188 344.534 180.7 346.875 177.188C348.38 172.924 348.932 169.43 347.274 165.106C345.196 161.094 343.239 158.567 339 157C331.505 155.751 326.855 157.086 322 163Z" fill="black"/>
<path d="M300.875 253.875C306.546 259.546 309.044 265.382 309.375 273.313C309.207 281.587 305.869 288.264 300 294C293.318 298.161 286.85 299.859 279 299C271.937 297.213 266.201 294.05 262 288C257.973 279.887 256.831 273.205 259.563 264.5C262.176 257.778 265.997 253.802 272.125 250.125C282.557 246.043 291.653 247.86 300.875 253.875ZM271.125 266.188C269.516 270.211 269.343 273.727 270 278C272.168 282.787 275.06 285.34 279.785 287.426C283.888 288.489 287.22 287.827 291 286C294.789 283.036 296.669 280.089 298.063 275.5C297.987 271.235 297.099 268.708 295 265C290.416 260.751 287.434 259.64 281.32 259.719C276.726 260.276 274.037 262.79 271.125 266.188Z" fill="black"/>
<path d="M413.375 278.563C418.4 281.525 421.831 285.608 424.375 290.813C425.895 298.563 425.602 304.733 421.668 311.73C418.168 316.494 414.013 319.236 408.289 320.688C402.051 321.526 396.612 320.936 391 318C385.498 313.476 381.594 308.09 380.762 300.957C380.526 294.13 381.989 288.339 386.649 283.172C394.041 276.522 404.027 274.366 413.375 278.563ZM395 291C392.562 294.961 391.873 297.059 392.5 301.688C394.226 305.5 395.325 307.002 399 309C403.264 309.837 406.112 309.521 409.875 307.313C412.997 303.916 414.034 301.63 413.938 297C412.717 293.095 411.25 291.473 408 289C402.725 287.465 399.473 287.747 395 291Z" fill="black"/>
<path d="M199.813 353.5C205.794 356.534 208.867 361.339 211.438 367.375C212.482 374.104 212.099 380.59 208.293 386.402C203.1 392.82 197.942 395.44 189.688 396.375C182.984 395.693 177.07 393.68 172.5 388.562C167.513 382.314 167.207 375.724 168 368C169.719 361.814 173.682 357.472 179 354C185.643 350.836 192.958 350.879 199.813 353.5ZM179.563 368.75C178.666 372.335 178.84 375.534 180 379C182.453 381.871 184.266 383.587 188 384.477C192.058 384.769 193.816 384.153 196.938 381.562C197.959 380.294 197.959 380.294 199 379C199.33 378.67 199.66 378.34 200 378C200.503 373.051 200.535 370.92 198 366.562C194.793 363.823 193.112 362.987 188.996 362.762C184.836 363.258 182.141 365.611 179.563 368.75Z" fill="black"/>
</mask>
<g mask="url(#mask0_2802_16)">
<rect width="512" height="512" fill="url(#paint0_linear_2802_16)"/>
</g>
<defs>
<linearGradient id="paint0_linear_2802_16" x1="256" y1="0" x2="256" y2="512" gradientUnits="userSpaceOnUse">
<stop stop-color="#14C6DF"/>
<stop offset="1" stop-color="#F208FD"/>
</linearGradient>
</defs>
</svg>
